<?xml version="1.0" encoding="utf-8"?>
<!-- Generator: Adobe Illustrator 26.3.1, SVG Export Plug-In . SVG Version: 6.00 Build 0)  -->
<svg version="1.1" id="Layer_1" xmlns="http://www.w3.org/2000/svg" xmlns:xlink="http://www.w3.org/1999/xlink" x="0px" y="0px"
	 viewBox="0 0 598.97 215.4" style="enable-background:new 0 0 598.97 215.4;" xml:space="preserve">
<style type="text/css">
	.st0{fill:#FFFFFF;}
	.st1{fill:#0A0094;}
</style>
<g>
	<path class="st1" d="M82.65,67.84c-9.68-1.14-19.03-0.35-27.75,1.98v39.94c5.71-3.46,12.43-5.41,19.6-5.3
		c20.37,0.32,36.87,17.69,36.18,38.05c-0.67,19.7-16.91,35.53-36.77,35.53c-16.82,0-31.03-11.34-35.4-26.78
		c-0.9-3.2-1.25-6.53-1.25-9.85V0H0c0,0,0,141.19,0,141.24c0,40.76,33.16,73.91,73.91,73.91c42.38,0,76.55-35.86,73.75-78.83
		C145.36,101.02,117.79,71.97,82.65,67.84z"/>
	<g>
		<rect x="177.36" y="67.83" class="st1" width="37.27" height="147.33"/>
		<path class="st1" d="M195.97,37.82c-6.31,0-12.37-3.45-15.81-8.99c-3.41-5.48-3.71-11.96-0.83-17.78
			c2.42-4.94,7.67-9.1,12.78-10.09c1.25-0.24,2.5-0.36,3.74-0.36c5.01,0,9.71,1.96,13.25,5.52c4.3,4.3,6.2,10.18,5.22,16.14
			c-0.99,5.96-4.69,10.92-10.17,13.62C201.52,37.16,198.77,37.82,195.97,37.82z"/>
	</g>
	<path class="st1" d="M355.06,105.15V67.89h-73.47V0h-37.27c0,0,0,141.19,0,141.24c0,40.76,33.16,73.91,73.91,73.91
		c8.49,0,25.68-0.14,36.77-0.14v-37.27c0,0-26.82-0.19-36.85-0.19c-16.82,0-30.95-10.86-35.32-26.3c-0.9-3.2-1.25-6.53-1.25-9.85
		v-36.25H355.06z"/>
	<rect x="384.76" y="0.57" class="st1" width="37.27" height="214.59"/>
	<path class="st1" d="M525.2,67.87c-40.67,0-73.77,33.09-73.77,73.77c0,40.68,33.09,73.77,73.77,73.77
		c40.68,0,73.77-33.09,73.77-73.77C598.97,100.96,565.88,67.87,525.2,67.87z M525.2,176.57c-19.3,0-34.94-15.64-34.94-34.94
		s15.64-34.94,34.94-34.94c19.3,0,34.94,15.64,34.94,34.94S544.5,176.57,525.2,176.57z"/>
</g>
</svg>
